<mxfile host="app.diagrams.net" agent="Mozilla/5.0 (Windows NT 10.0; Win64; x64) AppleWebKit/537.36 (KHTML, like Gecko) Chrome/128.0.0.0 Safari/537.36" version="24.7.10">
  <diagram name="Page-1" id="F__Ne57DqR_1DSg3J2lH">
    <mxGraphModel dx="2074" dy="1106" grid="1" gridSize="10" guides="1" tooltips="1" connect="1" arrows="1" fold="1" page="1" pageScale="1" pageWidth="850" pageHeight="1100" math="0" shadow="0">
      <root>
        <mxCell id="0" />
        <mxCell id="1" parent="0" />
        <mxCell id="3YVM9A-J5FjrSAPIvzLI-1" value="" style="edgeStyle=orthogonalEdgeStyle;rounded=0;orthogonalLoop=1;jettySize=auto;html=1;" edge="1" parent="1" source="3YVM9A-J5FjrSAPIvzLI-2" target="3YVM9A-J5FjrSAPIvzLI-6">
          <mxGeometry relative="1" as="geometry" />
        </mxCell>
        <mxCell id="3YVM9A-J5FjrSAPIvzLI-2" value="Start" style="ellipse;whiteSpace=wrap;html=1;fillColor=#d5e8d4;strokeColor=#82b366;" vertex="1" parent="1">
          <mxGeometry x="20" y="120" width="120" height="80" as="geometry" />
        </mxCell>
        <mxCell id="3YVM9A-J5FjrSAPIvzLI-3" value="" style="edgeStyle=orthogonalEdgeStyle;rounded=0;orthogonalLoop=1;jettySize=auto;html=1;" edge="1" parent="1" source="3YVM9A-J5FjrSAPIvzLI-4" target="3YVM9A-J5FjrSAPIvzLI-2">
          <mxGeometry relative="1" as="geometry" />
        </mxCell>
        <mxCell id="3YVM9A-J5FjrSAPIvzLI-4" value="&lt;b&gt;Suit,&lt;br&gt;Color,&lt;br&gt;Rank&lt;/b&gt;" style="shape=parallelogram;perimeter=parallelogramPerimeter;whiteSpace=wrap;html=1;fixedSize=1;" vertex="1" parent="1">
          <mxGeometry x="20" y="40" width="120" height="60" as="geometry" />
        </mxCell>
        <mxCell id="3YVM9A-J5FjrSAPIvzLI-5" value="" style="edgeStyle=orthogonalEdgeStyle;rounded=0;orthogonalLoop=1;jettySize=auto;html=1;" edge="1" parent="1" source="3YVM9A-J5FjrSAPIvzLI-6" target="3YVM9A-J5FjrSAPIvzLI-8">
          <mxGeometry relative="1" as="geometry" />
        </mxCell>
        <mxCell id="3YVM9A-J5FjrSAPIvzLI-6" value="Set &lt;b&gt;Card Suit&lt;/b&gt;" style="rounded=1;whiteSpace=wrap;html=1;" vertex="1" parent="1">
          <mxGeometry x="20" y="230" width="120" height="60" as="geometry" />
        </mxCell>
        <mxCell id="3YVM9A-J5FjrSAPIvzLI-7" value="" style="edgeStyle=orthogonalEdgeStyle;rounded=0;orthogonalLoop=1;jettySize=auto;html=1;" edge="1" parent="1" source="3YVM9A-J5FjrSAPIvzLI-8" target="3YVM9A-J5FjrSAPIvzLI-10">
          <mxGeometry relative="1" as="geometry" />
        </mxCell>
        <mxCell id="3YVM9A-J5FjrSAPIvzLI-8" value="Set &lt;b&gt;Card Rank&lt;/b&gt;" style="rounded=1;whiteSpace=wrap;html=1;" vertex="1" parent="1">
          <mxGeometry x="20" y="320" width="120" height="60" as="geometry" />
        </mxCell>
        <mxCell id="3YVM9A-J5FjrSAPIvzLI-9" value="" style="edgeStyle=orthogonalEdgeStyle;rounded=0;orthogonalLoop=1;jettySize=auto;html=1;" edge="1" parent="1" source="3YVM9A-J5FjrSAPIvzLI-10" target="3YVM9A-J5FjrSAPIvzLI-13">
          <mxGeometry relative="1" as="geometry" />
        </mxCell>
        <mxCell id="3YVM9A-J5FjrSAPIvzLI-10" value="Set &lt;b&gt;Card Color&lt;/b&gt;" style="rounded=1;whiteSpace=wrap;html=1;" vertex="1" parent="1">
          <mxGeometry x="20" y="420" width="120" height="60" as="geometry" />
        </mxCell>
        <mxCell id="3YVM9A-J5FjrSAPIvzLI-11" value="Yes" style="edgeStyle=orthogonalEdgeStyle;rounded=0;orthogonalLoop=1;jettySize=auto;html=1;" edge="1" parent="1" source="3YVM9A-J5FjrSAPIvzLI-13" target="3YVM9A-J5FjrSAPIvzLI-17">
          <mxGeometry relative="1" as="geometry" />
        </mxCell>
        <mxCell id="3YVM9A-J5FjrSAPIvzLI-12" value="No" style="edgeStyle=orthogonalEdgeStyle;rounded=0;orthogonalLoop=1;jettySize=auto;html=1;" edge="1" parent="1" source="3YVM9A-J5FjrSAPIvzLI-13" target="3YVM9A-J5FjrSAPIvzLI-15">
          <mxGeometry relative="1" as="geometry" />
        </mxCell>
        <mxCell id="3YVM9A-J5FjrSAPIvzLI-13" value="Face card?" style="rhombus;whiteSpace=wrap;html=1;" vertex="1" parent="1">
          <mxGeometry x="40" y="520" width="80" height="80" as="geometry" />
        </mxCell>
        <mxCell id="3YVM9A-J5FjrSAPIvzLI-14" style="edgeStyle=orthogonalEdgeStyle;rounded=0;orthogonalLoop=1;jettySize=auto;html=1;exitX=0.5;exitY=1;exitDx=0;exitDy=0;entryX=0.5;entryY=0;entryDx=0;entryDy=0;" edge="1" parent="1" source="3YVM9A-J5FjrSAPIvzLI-15" target="3YVM9A-J5FjrSAPIvzLI-20">
          <mxGeometry relative="1" as="geometry" />
        </mxCell>
        <mxCell id="3YVM9A-J5FjrSAPIvzLI-15" value="Set &lt;b&gt;Score&lt;/b&gt;&amp;nbsp;to &lt;b&gt;Card: Rank&lt;/b&gt;" style="rounded=1;whiteSpace=wrap;html=1;" vertex="1" parent="1">
          <mxGeometry x="20" y="640" width="120" height="60" as="geometry" />
        </mxCell>
        <mxCell id="3YVM9A-J5FjrSAPIvzLI-16" value="Result" style="edgeStyle=orthogonalEdgeStyle;rounded=0;orthogonalLoop=1;jettySize=auto;html=1;" edge="1" parent="1" source="3YVM9A-J5FjrSAPIvzLI-17" target="3YVM9A-J5FjrSAPIvzLI-22">
          <mxGeometry relative="1" as="geometry" />
        </mxCell>
        <mxCell id="3YVM9A-J5FjrSAPIvzLI-17" value="Find face card value" style="shape=process;whiteSpace=wrap;html=1;backgroundOutline=1;" vertex="1" parent="1">
          <mxGeometry x="190" y="530" width="120" height="60" as="geometry" />
        </mxCell>
        <mxCell id="3YVM9A-J5FjrSAPIvzLI-18" value="Rank" style="text;html=1;align=center;verticalAlign=middle;whiteSpace=wrap;rounded=0;" vertex="1" parent="1">
          <mxGeometry x="130" y="530" width="60" height="30" as="geometry" />
        </mxCell>
        <mxCell id="3YVM9A-J5FjrSAPIvzLI-19" value="" style="edgeStyle=orthogonalEdgeStyle;rounded=0;orthogonalLoop=1;jettySize=auto;html=1;" edge="1" parent="1" source="3YVM9A-J5FjrSAPIvzLI-20" target="3YVM9A-J5FjrSAPIvzLI-55">
          <mxGeometry relative="1" as="geometry" />
        </mxCell>
        <mxCell id="3YVM9A-J5FjrSAPIvzLI-20" value="" style="ellipse;whiteSpace=wrap;html=1;aspect=fixed;" vertex="1" parent="1">
          <mxGeometry x="60" y="770" width="40" height="40" as="geometry" />
        </mxCell>
        <mxCell id="3YVM9A-J5FjrSAPIvzLI-21" style="edgeStyle=orthogonalEdgeStyle;rounded=0;orthogonalLoop=1;jettySize=auto;html=1;exitX=0.5;exitY=1;exitDx=0;exitDy=0;entryX=1;entryY=0.5;entryDx=0;entryDy=0;" edge="1" parent="1" source="3YVM9A-J5FjrSAPIvzLI-22" target="3YVM9A-J5FjrSAPIvzLI-20">
          <mxGeometry relative="1" as="geometry" />
        </mxCell>
        <mxCell id="3YVM9A-J5FjrSAPIvzLI-22" value="Set &lt;b&gt;Score &lt;/b&gt;to &lt;b&gt;Result&lt;/b&gt;" style="rounded=1;whiteSpace=wrap;html=1;" vertex="1" parent="1">
          <mxGeometry x="190" y="640" width="120" height="60" as="geometry" />
        </mxCell>
        <mxCell id="3YVM9A-J5FjrSAPIvzLI-23" value="Find face card value" style="swimlane;whiteSpace=wrap;html=1;" vertex="1" parent="1">
          <mxGeometry x="360" y="10" width="340" height="930" as="geometry" />
        </mxCell>
        <mxCell id="3YVM9A-J5FjrSAPIvzLI-24" value="" style="edgeStyle=orthogonalEdgeStyle;rounded=0;orthogonalLoop=1;jettySize=auto;html=1;" edge="1" parent="3YVM9A-J5FjrSAPIvzLI-23" source="3YVM9A-J5FjrSAPIvzLI-25" target="3YVM9A-J5FjrSAPIvzLI-30">
          <mxGeometry relative="1" as="geometry" />
        </mxCell>
        <mxCell id="3YVM9A-J5FjrSAPIvzLI-25" value="Start" style="ellipse;whiteSpace=wrap;html=1;fillColor=#d5e8d4;strokeColor=#82b366;" vertex="1" parent="3YVM9A-J5FjrSAPIvzLI-23">
          <mxGeometry x="10" y="110" width="120" height="80" as="geometry" />
        </mxCell>
        <mxCell id="3YVM9A-J5FjrSAPIvzLI-26" style="edgeStyle=orthogonalEdgeStyle;rounded=0;orthogonalLoop=1;jettySize=auto;html=1;exitX=0.5;exitY=1;exitDx=0;exitDy=0;entryX=0.5;entryY=0;entryDx=0;entryDy=0;" edge="1" parent="3YVM9A-J5FjrSAPIvzLI-23" source="3YVM9A-J5FjrSAPIvzLI-27" target="3YVM9A-J5FjrSAPIvzLI-25">
          <mxGeometry relative="1" as="geometry" />
        </mxCell>
        <mxCell id="3YVM9A-J5FjrSAPIvzLI-27" value="&lt;b&gt;Rank&lt;/b&gt;" style="shape=parallelogram;perimeter=parallelogramPerimeter;whiteSpace=wrap;html=1;fixedSize=1;" vertex="1" parent="3YVM9A-J5FjrSAPIvzLI-23">
          <mxGeometry x="10" y="30" width="120" height="50" as="geometry" />
        </mxCell>
        <mxCell id="3YVM9A-J5FjrSAPIvzLI-28" value="yes" style="edgeStyle=orthogonalEdgeStyle;rounded=0;orthogonalLoop=1;jettySize=auto;html=1;" edge="1" parent="3YVM9A-J5FjrSAPIvzLI-23" source="3YVM9A-J5FjrSAPIvzLI-30" target="3YVM9A-J5FjrSAPIvzLI-38">
          <mxGeometry relative="1" as="geometry" />
        </mxCell>
        <mxCell id="3YVM9A-J5FjrSAPIvzLI-29" value="no" style="edgeStyle=orthogonalEdgeStyle;rounded=0;orthogonalLoop=1;jettySize=auto;html=1;" edge="1" parent="3YVM9A-J5FjrSAPIvzLI-23" source="3YVM9A-J5FjrSAPIvzLI-30" target="3YVM9A-J5FjrSAPIvzLI-33">
          <mxGeometry relative="1" as="geometry" />
        </mxCell>
        <mxCell id="3YVM9A-J5FjrSAPIvzLI-30" value="is rank J" style="rhombus;whiteSpace=wrap;html=1;" vertex="1" parent="3YVM9A-J5FjrSAPIvzLI-23">
          <mxGeometry x="30" y="230" width="80" height="80" as="geometry" />
        </mxCell>
        <mxCell id="3YVM9A-J5FjrSAPIvzLI-31" value="" style="edgeStyle=orthogonalEdgeStyle;rounded=0;orthogonalLoop=1;jettySize=auto;html=1;" edge="1" parent="3YVM9A-J5FjrSAPIvzLI-23" source="3YVM9A-J5FjrSAPIvzLI-33" target="3YVM9A-J5FjrSAPIvzLI-44">
          <mxGeometry relative="1" as="geometry" />
        </mxCell>
        <mxCell id="3YVM9A-J5FjrSAPIvzLI-32" value="no" style="edgeStyle=orthogonalEdgeStyle;rounded=0;orthogonalLoop=1;jettySize=auto;html=1;" edge="1" parent="3YVM9A-J5FjrSAPIvzLI-23" source="3YVM9A-J5FjrSAPIvzLI-33" target="3YVM9A-J5FjrSAPIvzLI-36">
          <mxGeometry relative="1" as="geometry" />
        </mxCell>
        <mxCell id="3YVM9A-J5FjrSAPIvzLI-33" value="is rank Q" style="rhombus;whiteSpace=wrap;html=1;" vertex="1" parent="3YVM9A-J5FjrSAPIvzLI-23">
          <mxGeometry x="30" y="350" width="80" height="80" as="geometry" />
        </mxCell>
        <mxCell id="3YVM9A-J5FjrSAPIvzLI-34" value="" style="edgeStyle=orthogonalEdgeStyle;rounded=0;orthogonalLoop=1;jettySize=auto;html=1;" edge="1" parent="3YVM9A-J5FjrSAPIvzLI-23" source="3YVM9A-J5FjrSAPIvzLI-36" target="3YVM9A-J5FjrSAPIvzLI-42">
          <mxGeometry relative="1" as="geometry" />
        </mxCell>
        <mxCell id="3YVM9A-J5FjrSAPIvzLI-35" value="" style="edgeStyle=orthogonalEdgeStyle;rounded=0;orthogonalLoop=1;jettySize=auto;html=1;" edge="1" parent="3YVM9A-J5FjrSAPIvzLI-23" source="3YVM9A-J5FjrSAPIvzLI-36" target="3YVM9A-J5FjrSAPIvzLI-40">
          <mxGeometry relative="1" as="geometry" />
        </mxCell>
        <mxCell id="3YVM9A-J5FjrSAPIvzLI-36" value="is rank K" style="rhombus;whiteSpace=wrap;html=1;" vertex="1" parent="3YVM9A-J5FjrSAPIvzLI-23">
          <mxGeometry x="30" y="460" width="80" height="80" as="geometry" />
        </mxCell>
        <mxCell id="3YVM9A-J5FjrSAPIvzLI-37" style="edgeStyle=orthogonalEdgeStyle;rounded=0;orthogonalLoop=1;jettySize=auto;html=1;exitX=1;exitY=0.5;exitDx=0;exitDy=0;entryX=0.5;entryY=0;entryDx=0;entryDy=0;" edge="1" parent="3YVM9A-J5FjrSAPIvzLI-23" source="3YVM9A-J5FjrSAPIvzLI-38" target="3YVM9A-J5FjrSAPIvzLI-46">
          <mxGeometry relative="1" as="geometry" />
        </mxCell>
        <mxCell id="3YVM9A-J5FjrSAPIvzLI-38" value="Set &lt;b&gt;Score &lt;/b&gt;to 11" style="rounded=1;whiteSpace=wrap;html=1;" vertex="1" parent="3YVM9A-J5FjrSAPIvzLI-23">
          <mxGeometry x="140" y="240" width="120" height="60" as="geometry" />
        </mxCell>
        <mxCell id="3YVM9A-J5FjrSAPIvzLI-39" value="" style="edgeStyle=orthogonalEdgeStyle;rounded=0;orthogonalLoop=1;jettySize=auto;html=1;" edge="1" parent="3YVM9A-J5FjrSAPIvzLI-23" source="3YVM9A-J5FjrSAPIvzLI-40" target="3YVM9A-J5FjrSAPIvzLI-50">
          <mxGeometry relative="1" as="geometry" />
        </mxCell>
        <mxCell id="3YVM9A-J5FjrSAPIvzLI-40" value="Set &lt;b&gt;Score &lt;/b&gt;to 14" style="rounded=1;whiteSpace=wrap;html=1;" vertex="1" parent="3YVM9A-J5FjrSAPIvzLI-23">
          <mxGeometry x="10" y="570" width="120" height="60" as="geometry" />
        </mxCell>
        <mxCell id="3YVM9A-J5FjrSAPIvzLI-41" value="" style="edgeStyle=orthogonalEdgeStyle;rounded=0;orthogonalLoop=1;jettySize=auto;html=1;" edge="1" parent="3YVM9A-J5FjrSAPIvzLI-23" source="3YVM9A-J5FjrSAPIvzLI-42" target="3YVM9A-J5FjrSAPIvzLI-48">
          <mxGeometry relative="1" as="geometry" />
        </mxCell>
        <mxCell id="3YVM9A-J5FjrSAPIvzLI-42" value="Set &lt;b&gt;Score &lt;/b&gt;to 13" style="rounded=1;whiteSpace=wrap;html=1;" vertex="1" parent="3YVM9A-J5FjrSAPIvzLI-23">
          <mxGeometry x="140" y="470" width="120" height="60" as="geometry" />
        </mxCell>
        <mxCell id="3YVM9A-J5FjrSAPIvzLI-43" value="" style="edgeStyle=orthogonalEdgeStyle;rounded=0;orthogonalLoop=1;jettySize=auto;html=1;" edge="1" parent="3YVM9A-J5FjrSAPIvzLI-23" source="3YVM9A-J5FjrSAPIvzLI-44" target="3YVM9A-J5FjrSAPIvzLI-46">
          <mxGeometry relative="1" as="geometry" />
        </mxCell>
        <mxCell id="3YVM9A-J5FjrSAPIvzLI-44" value="Set &lt;b&gt;Score &lt;/b&gt;to 12" style="rounded=1;whiteSpace=wrap;html=1;" vertex="1" parent="3YVM9A-J5FjrSAPIvzLI-23">
          <mxGeometry x="140" y="360" width="120" height="60" as="geometry" />
        </mxCell>
        <mxCell id="3YVM9A-J5FjrSAPIvzLI-45" value="" style="edgeStyle=orthogonalEdgeStyle;rounded=0;orthogonalLoop=1;jettySize=auto;html=1;" edge="1" parent="3YVM9A-J5FjrSAPIvzLI-23" source="3YVM9A-J5FjrSAPIvzLI-46" target="3YVM9A-J5FjrSAPIvzLI-48">
          <mxGeometry relative="1" as="geometry" />
        </mxCell>
        <mxCell id="3YVM9A-J5FjrSAPIvzLI-46" value="" style="ellipse;whiteSpace=wrap;html=1;aspect=fixed;" vertex="1" parent="3YVM9A-J5FjrSAPIvzLI-23">
          <mxGeometry x="290" y="370" width="40" height="40" as="geometry" />
        </mxCell>
        <mxCell id="3YVM9A-J5FjrSAPIvzLI-47" style="edgeStyle=orthogonalEdgeStyle;rounded=0;orthogonalLoop=1;jettySize=auto;html=1;exitX=0.5;exitY=1;exitDx=0;exitDy=0;entryX=1;entryY=0.5;entryDx=0;entryDy=0;" edge="1" parent="3YVM9A-J5FjrSAPIvzLI-23" source="3YVM9A-J5FjrSAPIvzLI-48" target="3YVM9A-J5FjrSAPIvzLI-50">
          <mxGeometry relative="1" as="geometry" />
        </mxCell>
        <mxCell id="3YVM9A-J5FjrSAPIvzLI-48" value="" style="ellipse;whiteSpace=wrap;html=1;aspect=fixed;" vertex="1" parent="3YVM9A-J5FjrSAPIvzLI-23">
          <mxGeometry x="290" y="480" width="40" height="40" as="geometry" />
        </mxCell>
        <mxCell id="3YVM9A-J5FjrSAPIvzLI-49" value="" style="edgeStyle=orthogonalEdgeStyle;rounded=0;orthogonalLoop=1;jettySize=auto;html=1;" edge="1" parent="3YVM9A-J5FjrSAPIvzLI-23" source="3YVM9A-J5FjrSAPIvzLI-50" target="3YVM9A-J5FjrSAPIvzLI-52">
          <mxGeometry relative="1" as="geometry" />
        </mxCell>
        <mxCell id="3YVM9A-J5FjrSAPIvzLI-50" value="" style="ellipse;whiteSpace=wrap;html=1;aspect=fixed;" vertex="1" parent="3YVM9A-J5FjrSAPIvzLI-23">
          <mxGeometry x="50" y="690" width="40" height="40" as="geometry" />
        </mxCell>
        <mxCell id="3YVM9A-J5FjrSAPIvzLI-51" value="" style="edgeStyle=orthogonalEdgeStyle;rounded=0;orthogonalLoop=1;jettySize=auto;html=1;" edge="1" parent="3YVM9A-J5FjrSAPIvzLI-23" source="3YVM9A-J5FjrSAPIvzLI-52" target="3YVM9A-J5FjrSAPIvzLI-53">
          <mxGeometry relative="1" as="geometry" />
        </mxCell>
        <mxCell id="3YVM9A-J5FjrSAPIvzLI-52" value="End" style="ellipse;whiteSpace=wrap;html=1;fillColor=#f8cecc;strokeColor=#b85450;" vertex="1" parent="3YVM9A-J5FjrSAPIvzLI-23">
          <mxGeometry x="10" y="760" width="120" height="80" as="geometry" />
        </mxCell>
        <mxCell id="3YVM9A-J5FjrSAPIvzLI-53" value="&lt;b&gt;Score&lt;/b&gt;" style="shape=parallelogram;perimeter=parallelogramPerimeter;whiteSpace=wrap;html=1;fixedSize=1;" vertex="1" parent="3YVM9A-J5FjrSAPIvzLI-23">
          <mxGeometry x="10" y="860" width="120" height="60" as="geometry" />
        </mxCell>
        <mxCell id="3YVM9A-J5FjrSAPIvzLI-54" value="" style="edgeStyle=orthogonalEdgeStyle;rounded=0;orthogonalLoop=1;jettySize=auto;html=1;" edge="1" parent="1" source="3YVM9A-J5FjrSAPIvzLI-55" target="3YVM9A-J5FjrSAPIvzLI-56">
          <mxGeometry relative="1" as="geometry" />
        </mxCell>
        <mxCell id="3YVM9A-J5FjrSAPIvzLI-55" value="End" style="ellipse;whiteSpace=wrap;html=1;fillColor=#f8cecc;strokeColor=#b85450;" vertex="1" parent="1">
          <mxGeometry x="20" y="840" width="120" height="80" as="geometry" />
        </mxCell>
        <mxCell id="3YVM9A-J5FjrSAPIvzLI-56" value="&lt;b&gt;Score&lt;/b&gt;" style="shape=parallelogram;perimeter=parallelogramPerimeter;whiteSpace=wrap;html=1;fixedSize=1;" vertex="1" parent="1">
          <mxGeometry x="20" y="950" width="120" height="60" as="geometry" />
        </mxCell>
      </root>
    </mxGraphModel>
  </diagram>
</mxfile>
